PathFileType	4	(X/Y/Z)	58_2_38_p0_0-296.trc
DataRate	CameraRate	NumFrames	NumMarkers	Units	OrigDataRate	OrigDataStartFrame	OrigNumFrames
52.0	52.0	5	27	m	52.0	37	297
Frame#	Time	RHip			RKnee			RAnkle			RBigToe			RSmallToe			RHeel			LHip			LKnee			LAnkle			LBigToe			LSmallToe			LHeel			Neck			Head			Nose			RShoulder			RElbow			RWrist			RThumb			RIndex			RPinky			LShoulder			LElbow			LWrist			LThumb			LIndex			LPinky			
		X1	Y1	Z1	X2	Y2	Z2	X3	Y3	Z3	X4	Y4	Z4	X5	Y5	Z5	X6	Y6	Z6	X7	Y7	Z7	X8	Y8	Z8	X9	Y9	Z9	X10	Y10	Z10	X11	Y11	Z11	X12	Y12	Z12	X13	Y13	Z13	X14	Y14	Z14	X15	Y15	Z15	X16	Y16	Z16	X17	Y17	Z17	X18	Y18	Z18	X19	Y19	Z19	X20	Y20	Z20	X21	Y21	Z21	X22	Y22	Z22	X23	Y23	Z23	X24	Y24	Z24	X25	Y25	Z25	X26	Y26	Z26	X27	Y27	Z27	
37	0.7115384615384616	0.3231758324658601	0.4004762605264141	1.095845593289858	0.3164033978077672	0.5773696207758761	1.5082355602370379	0.3215465169660901	0.7441836722266523	1.9071892292761166	0.2937170698312845	0.586082816413428	1.9534054739820832	0.3493874846507522	0.609876726476135	1.9483624148276462	0.2975662708403686	0.8569856567102373	1.9793989436608068	0.14206015130216834	0.4708269383044494	1.108592265172296	0.14513566567206737	0.633074658066934	1.5109516282181712	0.13160523228264615	0.7452912269266198	1.9028996174977377	0.1300610616451549	0.5672526187076072	1.9432569765005143	0.0783910918229981	0.6108291282915985	1.9430394986073554	0.14831031242984377	0.8005670415809274	1.9541914761804755	0.23599361180091546	0.3901969165705649	0.5439644667892002	0.24161188638002246	0.32594097549563267	0.3292023970735714	0.22821856968378662	0.2709883971594072	0.43705634552657013	0.3808536179335618	0.4063846163946791	0.6407525999786658	0.43164941149727937	0.39424632870701887	0.9084546343950158	0.296432268513413	0.19199313482652378	0.8978698620030392	0.21501015711106328	0.17441713081056234	0.8835804461953	0.20903693750341598	0.14100232474737764	0.8878088723353712	0.21692295560224623	0.16435966606035896	0.9396802013751885	0.06167872473862215	0.39111211242222	0.6310840980099819	0.033076560993764534	0.4370244832216687	0.8910760148450948	0.11886147700557878	0.30682891306467375	1.016594928998328	0.2045633132849521	0.2738705221710487	1.036106916062107	0.20812995225353176	0.2251806354336538	1.069441052977192	0.18188517641285412	0.26040286739733853	1.0890372556447845
38	0.7307692307692307	0.31975547287553696	0.4094672497095215	1.0977365405380617	0.31197414982433036	0.5611750453231434	1.499930240527338	0.3215496438629825	0.7442030565284671	1.9072628422230722	0.29282152881559154	0.5878623861921483	1.9589557864651646	0.34930674444080867	0.6091290471085136	1.9481854923014628	0.2975998208969709	0.856962269581414	1.9794890849473874	0.14715825501295274	0.4708842133372177	1.1133589078162944	0.1458466701957516	0.6311868529473977	1.5148239481578352	0.131722589173145	0.7458711864963679	1.903307660170334	0.1271998466348133	0.5528496181668694	1.9371286257700875	0.07856193432045389	0.610642692307446	1.9432098033995602	0.14820513380964562	0.8004518464450088	1.954177178963501	0.23600545272108336	0.3902180785501009	0.5438749123508976	0.24183089169370553	0.3274861637826025	0.33225119272899917	0.22824624759151077	0.2708584244135351	0.43709800154620077	0.3814139260872175	0.40881158601106216	0.6441935514183759	0.4242840597822095	0.4034975152619327	0.9125042713715777	0.3001162605121479	0.19005103477378182	0.8825180288881702	0.21002722446490513	0.16121468542001813	0.8401503725453939	0.2113544649745117	0.13111702745289763	0.8504495564122772	0.21985792861646902	0.14242462668440747	0.898175083014868	0.062262110950886296	0.39294264189362427	0.6273935052196683	0.032075249382774125	0.433940168261561	0.8790804765975342	0.12360673529556508	0.2939945441050917	1.0045176953388408	0.20382894432360274	0.2463011648589258	1.0241674250575203	0.20490938031141898	0.2135344459863776	1.0604754430235894	0.17487206694206842	0.24862383993161896	1.0800084749698566
39	0.75	0.32802419394870425	0.4221542091573208	1.0996617088206107	0.31590643277623226	0.574069692455774	1.5036667367969856	0.32158161668658514	0.7442867455151719	1.907288275710462	0.29287285065549773	0.5878861129739961	1.958991332482054	0.3497987305444127	0.6073826749733817	1.9522636421130906	0.2976316783380174	0.8571933490385718	1.9794892709983087	0.14660679485381103	0.4699405454962709	1.1053654570410678	0.14034050388419758	0.6432135832409096	1.5139807721339469	0.13182830585734914	0.7456204464770309	1.903401635963472	0.12716891456582036	0.5527375745911726	1.937240918639246	0.0786064501289528	0.6105149038130133	1.9432614814722133	0.14817899934485093	0.7995351259448754	1.9539370017160966	0.2360444618034167	0.3902055570210256	0.5439924960222179	0.2419174120665079	0.32739957808900144	0.3323658889387885	0.22833962298025134	0.2708673927657039	0.4371150825666942	0.3812608165842001	0.4092391332920608	0.643937101002707	0.4301932598711482	0.3730764639048547	0.914786101778894	0.317740995077762	0.2022672912944651	0.8688229195951892	0.23775601792082374	0.15392127006278453	0.8056240957701651	0.2270953503780525	0.1092640557423035	0.8067765010247643	0.23649918444386947	0.1452823440193581	0.883479113768565	0.06858229530569385	0.40385124675279954	0.6274380668543288	0.0314861123369217	0.4288298296845467	0.8740777427141309	0.12771187736387124	0.27969862017833746	0.9977079371427243	0.2015795041617406	0.21000523812766242	1.014687855167679	0.20511609604897743	0.19288006818698444	1.0495768174478846	0.17427343491682065	0.24639990056673852	1.0749948807713061
40	0.7692307692307693	0.32429899875128043	0.4345437801257233	1.101371133891936	0.31111426570531914	0.5584588577548993	1.4953144669318963	0.3215278183767814	0.7440800828901974	1.9072600385316651	0.2929643480202894	0.588711706666226	1.9595180980344007	0.34996448275670455	0.6085452377160806	1.9526792338835277	0.2975685493674311	0.857233852150079	1.9800394963981538	0.14193375349150228	0.48318300958183397	1.1073214119642227	0.14035052452076135	0.6428439366606551	1.513696438155748	0.13172005372909423	0.7454195613334643	1.9032305475444775	0.1271522065533719	0.5527383421615621	1.9374491669167615	0.07865883206400735	0.6106895274920033	1.9435285641100797	0.14792837853604385	0.7989784017016222	1.9535109759308609	0.2360197237138016	0.39030298086238296	0.5439195541262942	0.24197869020870164	0.3276192707703939	0.33225799904047665	0.22832190816692124	0.2708049959032463	0.4371456280173373	0.38113790160302174	0.4062344278127801	0.6440396050805832	0.42267474254999426	0.35068827812949555	0.9115188352436232	0.3091808485167135	0.17736224784735896	0.8457360148967064	0.2462646539058969	0.13132256963046982	0.7877817752779933	0.24195695725489552	0.09838950687658196	0.7942398504834992	0.23900897611017233	0.14818456898395876	0.8621008425410109	0.06467486716145092	0.401867407045351	0.6274181329802119	0.028055683921734163	0.4290779344746322	0.878715640935377	0.12382505752058126	0.2905228454856321	0.9953948533386133	0.2020254538935197	0.18568860735673087	0.9999355012313026	0.20767054936695303	0.1820296495123427	1.0331075492050414	0.17372307714357502	0.2477885586093404	1.0745313652545547
41	0.7884615384615384	0.32305030819984104	0.42219175414703647	1.0949774640921748	0.3118140999862266	0.5610709879375869	1.4996301774333296	0.3215815168925486	0.7440647384514768	1.907129942888576	0.29285678671020476	0.5878925888004006	1.9589707362712994	0.34958483794716555	0.6070879444259711	1.951964291978677	0.29760242984688423	0.8570893709180278	1.9795823356391387	0.14173013814602034	0.4847098115584023	1.103523057218312	0.14563301245186397	0.6278137913070573	1.5010510671438717	0.13166006008790038	0.7452856732481236	1.903087461504075	0.1271659043777427	0.5526978176429811	1.9372773285821254	0.07857813244743801	0.6104686957195149	1.9432151449772237	0.14792257389814095	0.7988588135113892	1.9534530139203508	0.23618752368814616	0.3920365586824349	0.5473503577325364	0.24199374064086343	0.32736304528256494	0.3321301295521052	0.22848592564387366	0.270551052796407	0.43719827910081654	0.38043327254973025	0.4077838063391488	0.6402784413854427	0.4215574623622108	0.34911510857482825	0.9076541302274688	0.30235598466038044	0.16977901478936286	0.8123890819111743	0.23284389124029142	0.13069981313105264	0.7664928063507911	0.22898809600456474	0.11173162383163693	0.768566773191428	0.2396613450177515	0.1581441446768806	0.81729869130922	0.06870554481724499	0.4038983647188378	0.6273395750204739	0.027436017032099313	0.42788316037023894	0.8719348939984942	0.12975067009511027	0.2553496589276473	0.9829334675133582	0.20246708503634825	0.1814305968072663	0.988872546914781	0.20687961998107185	0.17752803064845085	1.0211743970757854	0.1709977067216431	0.2495079121107972	1.0660651136608907
